<svg xmlns="http://www.w3.org/2000/svg" viewBox="0 9.050000190734863 205.6999969482422 39.75" data-asc="0.968"><g fill="#000000"><g fill="#000000" transform="translate(0, 0)"><path d="M11.65 48.80Q8.20 48.80 5.03 47.98Q1.85 47.15 0 45.90L2.60 40.30Q4.45 41.45 6.98 42.17Q9.50 42.90 11.95 42.90Q14.65 42.90 15.78 42.25Q16.90 41.60 16.90 40.45Q16.90 39.50 16.03 39.02Q15.15 38.55 13.70 38.30Q12.25 38.05 10.53 37.80Q8.80 37.55 7.05 37.13Q5.30 36.70 3.85 35.85Q2.40 35 1.53 33.55Q0.65 32.10 0.65 29.80Q0.65 27.25 2.13 25.30Q3.60 23.35 6.40 22.22Q9.20 21.10 13.10 21.10Q15.85 21.10 18.70 21.70Q21.55 22.30 23.45 23.45L20.85 29.00Q18.90 27.85 16.93 27.42Q14.95 27.00 13.10 27.00Q10.50 27.00 9.30 27.70Q8.10 28.40 8.10 29.50Q8.10 30.50 8.98 31.00Q9.85 31.50 11.30 31.80Q12.75 32.10 14.48 32.33Q16.20 32.55 17.95 33Q19.70 33.45 21.13 34.27Q22.55 35.10 23.45 36.52Q24.35 37.95 24.35 40.25Q24.35 42.75 22.85 44.67Q21.35 46.60 18.53 47.70Q15.70 48.80 11.65 48.80ZM40.50 48.80Q37.15 48.80 34.52 47.50Q31.90 46.20 30.45 43.52Q29 40.85 29 36.70L29 21.50L36.80 21.50L36.80 35.55Q36.80 38.90 38.23 40.47Q39.65 42.05 42.25 42.05Q44.05 42.05 45.45 41.27Q46.85 40.50 47.65 38.88Q48.45 37.25 48.45 34.80L48.45 21.50L56.25 21.50L56.25 48.40L48.85 48.40L48.85 41L50.20 43.15Q48.85 45.95 46.23 47.38Q43.60 48.80 40.50 48.80ZM79.85 21.10Q83.05 21.10 85.58 22.37Q88.10 23.65 89.55 26.27Q91 28.90 91 33L91 48.40L83.20 48.40L83.20 34.20Q83.20 30.95 81.78 29.40Q80.35 27.85 77.75 27.85Q75.90 27.85 74.43 28.62Q72.95 29.40 72.13 31.00Q71.30 32.60 71.30 35.10L71.30 48.40L63.50 48.40L63.50 21.50L70.95 21.50L70.95 28.95L69.55 26.70Q71 24.00 73.70 22.55Q76.40 21.10 79.85 21.10ZM99.00 48.40L99.00 20.90Q99.00 16.35 101.70 13.63Q104.40 10.90 109.40 10.90Q111.10 10.90 112.68 11.25Q114.25 11.60 115.35 12.35L113.30 18.00Q112.65 17.55 111.85 17.30Q111.05 17.05 110.15 17.05Q108.45 17.05 107.53 18.02Q106.60 19.00 106.60 20.95L106.60 23.45L106.80 26.80L106.80 48.40L99.00 48.40M94.85 28.10L94.85 22.10L113.50 22.10L113.50 28.10L94.85 28.10ZM117.40 48.40L117.40 21.50L124.85 21.50L124.85 29.10L123.80 26.90Q125.00 24.05 127.65 22.57Q130.30 21.10 134.10 21.10L134.10 28.30Q133.60 28.25 133.20 28.22Q132.80 28.20 132.35 28.20Q129.15 28.20 127.18 30.02Q125.20 31.85 125.20 35.70L125.20 48.40L117.40 48.40ZM150.30 48.80Q146.95 48.80 144.33 47.50Q141.70 46.20 140.25 43.52Q138.80 40.85 138.80 36.70L138.80 21.50L146.60 21.50L146.60 35.55Q146.60 38.90 148.03 40.47Q149.45 42.05 152.05 42.05Q153.85 42.05 155.25 41.27Q156.65 40.50 157.45 38.88Q158.25 37.25 158.25 34.80L158.25 21.50L166.05 21.50L166.05 48.40L158.65 48.40L158.65 41L160.00 43.15Q158.65 45.95 156.03 47.38Q153.40 48.80 150.30 48.80ZM173.30 48.40L173.30 21.50L181.10 21.50L181.10 48.40L173.30 48.40M177.20 17.75Q175.05 17.75 173.70 16.50Q172.35 15.25 172.35 13.40Q172.35 11.55 173.70 10.30Q175.05 9.05 177.20 9.05Q179.35 9.05 180.70 10.22Q182.05 11.40 182.05 13.25Q182.05 15.20 180.73 16.47Q179.40 17.75 177.20 17.75ZM199.35 48.80Q194.60 48.80 191.95 46.38Q189.30 43.95 189.30 39.15L189.30 15.55L197.10 15.55L197.10 39.05Q197.10 40.75 198.00 41.67Q198.90 42.60 200.45 42.60Q202.30 42.60 203.60 41.60L205.70 47.10Q204.50 47.95 202.83 48.38Q201.15 48.80 199.35 48.80M185.15 28.10L185.15 22.10L203.80 22.10L203.80 28.10L185.15 28.10Z"/></g></g></svg>