<svg xmlns="http://www.w3.org/2000/svg" xmlns:xlink="http://www.w3.org/1999/xlink" width="600" zoomAndPan="magnify" viewBox="0 0 450 97.5" height="130" preserveAspectRatio="xMidYMid meet" version="1.2"><g id="cfe950a355"><path style=" stroke:none;fill-rule:nonzero;fill:#004e36;fill-opacity:1;" d="M 30.242188 91.941406 C 24.664062 91.941406 19.53125 91.277344 14.84375 89.941406 C 10.160156 88.605469 6.144531 86.734375 2.796875 84.332031 L 8.683594 72.832031 C 11.90625 74.855469 15.414062 76.453125 19.214844 77.636719 C 23.015625 78.816406 26.648438 79.40625 30.117188 79.40625 C 33.585938 79.40625 36.332031 78.914062 38.234375 77.921875 C 40.132812 76.929688 41.082031 75.503906 41.082031 73.628906 C 41.082031 71.949219 40.234375 70.710938 38.542969 69.90625 C 36.847656 69.105469 33.605469 68.246094 28.816406 67.332031 C 20.597656 65.957031 14.597656 63.804688 10.820312 60.867188 C 7.042969 57.929688 5.152344 53.882812 5.152344 48.734375 C 5.152344 45.035156 6.246094 41.796875 8.433594 39.035156 C 10.621094 36.269531 13.652344 34.113281 17.511719 32.566406 C 21.375 31.019531 25.824219 30.246094 30.863281 30.246094 C 35.902344 30.246094 40.425781 30.867188 44.800781 32.109375 C 49.179688 33.347656 52.9375 35.09375 56.074219 37.34375 L 50.4375 48.847656 C 48.785156 47.625 46.894531 46.558594 44.765625 45.640625 C 42.636719 44.726562 40.421875 44.019531 38.105469 43.527344 C 35.792969 43.03125 33.519531 42.78125 31.289062 42.78125 C 28.234375 42.78125 25.765625 43.25 23.886719 44.183594 C 22.007812 45.117188 21.070312 46.445312 21.070312 48.160156 C 21.070312 49.875 21.925781 51.144531 23.640625 51.964844 C 25.355469 52.785156 28.542969 53.671875 33.210938 54.628906 C 41.800781 56.308594 47.914062 58.527344 51.546875 61.292969 C 55.179688 64.0625 57 67.921875 57 72.882812 C 57 76.738281 55.875 80.085938 53.625 82.925781 C 51.371094 85.769531 48.246094 87.984375 44.238281 89.566406 C 40.230469 91.148438 35.566406 91.941406 30.234375 91.941406 Z M 30.242188 91.941406 "/><path style=" stroke:none;fill-rule:nonzero;fill:#004e36;fill-opacity:1;" d="M 90.269531 92 C 84.609375 92 79.933594 90.96875 76.234375 88.910156 C 72.542969 86.851562 69.792969 84.035156 67.996094 80.464844 C 66.203125 76.898438 65.300781 72.84375 65.300781 68.300781 L 65.300781 32.535156 L 83.082031 32.535156 L 83.082031 65.671875 C 83.082031 69.144531 84.121094 71.898438 86.210938 73.941406 C 88.296875 75.984375 91.261719 77 95.101562 77 C 97.617188 77 99.839844 76.484375 101.761719 75.453125 C 103.683594 74.421875 105.179688 72.992188 106.253906 71.160156 C 107.324219 69.328125 107.863281 67.191406 107.863281 64.75 L 107.863281 32.527344 L 125.707031 32.527344 L 125.707031 90.269531 L 110.15625 90.269531 L 110.15625 83.917969 C 108.007812 86.207031 105.347656 88.125 102.164062 89.671875 C 98.984375 91.21875 95.015625 91.992188 90.269531 91.992188 Z M 90.269531 92 "/><path style=" stroke:none;fill-rule:nonzero;fill:#004e36;fill-opacity:1;" d="M 138.835938 90.285156 L 138.835938 32.539062 L 156.613281 32.539062 L 156.613281 39.121094 C 159.050781 36.222656 161.910156 34.113281 165.195312 32.800781 C 168.476562 31.480469 171.917969 30.824219 175.507812 30.824219 C 181.332031 30.824219 186.121094 31.890625 189.882812 34.03125 C 193.636719 36.167969 196.4375 38.90625 198.277344 42.242188 C 200.113281 45.582031 201.03125 49.082031 201.03125 52.746094 L 201.03125 90.289062 L 183.191406 90.289062 L 183.191406 57.894531 C 183.191406 54.195312 182.074219 51.253906 179.84375 49.082031 C 177.613281 46.90625 174.410156 45.820312 170.242188 45.820312 C 167.554688 45.820312 165.195312 46.359375 163.148438 47.449219 C 161.101562 48.539062 159.5 50.0625 158.347656 52.03125 C 157.191406 53.996094 156.613281 56.277344 156.613281 58.867188 L 156.613281 90.289062 L 138.835938 90.289062 Z M 138.835938 90.285156 "/><path style=" stroke:none;fill-rule:nonzero;fill:#004e36;fill-opacity:1;" d="M 201.777344 32.535156 C 201.777344 32.535156 215.09375 32.535156 215.09375 32.535156 L 215.09375 45.757812 L 214.996094 45.757812 C 207.695312 45.757812 201.777344 39.835938 201.777344 32.535156 Z M 213.300781 90.28125 L 213.300781 25.78125 C 213.300781 19.753906 215.222656 14.976562 219.0625 11.445312 C 222.902344 7.917969 228.335938 6.148438 235.355469 6.148438 C 237.710938 6.148438 239.949219 6.378906 242.082031 6.835938 C 244.207031 7.296875 246.265625 7.984375 248.242188 8.894531 L 245.394531 21.542969 C 244.242188 20.9375 243.101562 20.511719 241.988281 20.285156 C 240.871094 20.054688 239.796875 19.941406 238.765625 19.941406 C 236.449219 19.941406 234.59375 20.457031 233.1875 21.488281 C 231.78125 22.519531 231.082031 24.214844 231.082031 26.578125 L 231.082031 32.53125 L 246.753906 32.53125 L 246.753906 45.753906 L 231.082031 45.753906 L 231.082031 90.28125 Z M 213.300781 90.28125 "/><path style=" stroke:none;fill-rule:nonzero;fill:#004e36;fill-opacity:1;" d="M 254.503906 90.285156 L 254.503906 32.539062 L 272.285156 32.539062 L 272.285156 39.753906 C 274.347656 36.546875 276.96875 34.25 280.152344 32.855469 C 283.332031 31.464844 286.800781 30.765625 290.5625 30.765625 C 291.882812 30.765625 293.101562 30.832031 294.214844 30.964844 C 295.332031 31.097656 296.425781 31.261719 297.5 31.449219 L 295.332031 48.449219 C 293.96875 47.992188 292.554688 47.640625 291.085938 47.390625 C 289.617188 47.144531 288.164062 47.023438 286.71875 47.023438 C 282.546875 47.023438 279.097656 48.167969 276.371094 50.457031 C 273.644531 52.746094 272.285156 55.988281 272.285156 60.1875 L 272.285156 90.289062 L 254.503906 90.289062 Z M 254.503906 90.285156 "/><path style=" stroke:none;fill-rule:nonzero;fill:#004e36;fill-opacity:1;" d="M 328.78125 92 C 323.121094 92 318.445312 90.96875 314.746094 88.910156 C 311.054688 86.851562 308.308594 84.035156 306.507812 80.464844 C 304.714844 76.898438 303.8125 72.84375 303.8125 68.300781 L 303.8125 32.535156 L 321.59375 32.535156 L 321.59375 65.671875 C 321.59375 69.144531 322.636719 71.898438 324.722656 73.941406 C 326.808594 75.984375 329.773438 77 333.613281 77 C 336.128906 77 338.351562 76.484375 340.273438 75.453125 C 342.195312 74.421875 343.691406 72.992188 344.765625 71.160156 C 345.835938 69.328125 346.375 67.191406 346.375 64.75 L 346.375 32.527344 L 364.21875 32.527344 L 364.21875 90.269531 L 348.667969 90.269531 L 348.667969 83.917969 C 346.519531 86.207031 343.859375 88.125 340.675781 89.671875 C 337.496094 91.21875 333.527344 91.992188 328.78125 91.992188 Z M 328.78125 92 "/><path style=" stroke:none;fill-rule:nonzero;fill:#46de46;fill-opacity:1;" d="M 385.269531 16.394531 C 379.730469 16.394531 375.238281 20.882812 375.238281 26.425781 L 375.238281 34.394531 L 383.210938 34.394531 C 388.746094 34.394531 393.238281 29.90625 393.238281 24.367188 L 393.238281 16.394531 Z M 385.269531 16.394531 "/><path style=" stroke:none;fill-rule:nonzero;fill:#004e36;fill-opacity:1;" d="M 375.289062 90.285156 L 375.289062 39.488281 L 382.445312 39.488281 C 388.308594 39.488281 393.066406 44.242188 393.066406 50.109375 L 393.066406 90.289062 L 375.289062 90.289062 Z M 375.289062 90.285156 "/><path style=" stroke:none;fill-rule:nonzero;fill:#004e36;fill-opacity:1;" d="M 420.082031 32.535156 L 420.082031 15.878906 L 402.417969 15.878906 L 402.417969 73.839844 C 402.871094 79.472656 404.753906 83.792969 408.066406 86.789062 C 411.90625 90.261719 417.152344 91.996094 423.800781 91.996094 C 426.609375 91.996094 429.300781 91.667969 431.886719 91.019531 C 433.238281 90.679688 434.492188 90.300781 435.644531 89.886719 L 435.644531 75.789062 C 434.671875 76.242188 433.625 76.613281 432.503906 76.882812 C 431.242188 77.1875 429.949219 77.339844 428.632812 77.339844 C 426.03125 77.339844 423.953125 76.636719 422.40625 75.222656 C 420.859375 73.8125 420.082031 71.410156 420.082031 68.011719 L 420.082031 45.746094 "/><path style=" stroke:none;fill-rule:nonzero;fill:#004e36;fill-opacity:1;" d="M 420.042969 32.398438 L 433.644531 32.398438 L 433.644531 42.84375 C 433.644531 44.585938 432.230469 46 430.488281 46 L 420.042969 46 Z M 420.042969 32.398438 "/><path style=" stroke:none;fill-rule:nonzero;fill:#004e36;fill-opacity:1;" d="M 440.410156 26.914062 C 439.339844 26.914062 438.375 26.671875 437.523438 26.1875 C 436.671875 25.703125 435.996094 25.039062 435.5 24.210938 C 435.003906 23.378906 434.753906 22.445312 434.753906 21.398438 C 434.753906 20.355469 435.003906 19.414062 435.5 18.582031 C 436 17.75 436.671875 17.085938 437.523438 16.605469 C 438.375 16.125 439.339844 15.882812 440.410156 15.882812 C 441.484375 15.882812 442.433594 16.128906 443.289062 16.625 C 444.140625 17.117188 444.820312 17.78125 445.320312 18.617188 C 445.816406 19.449219 446.066406 20.378906 446.066406 21.402344 C 446.066406 22.425781 445.820312 23.382812 445.324219 24.214844 C 444.824219 25.050781 444.148438 25.707031 443.296875 26.191406 C 442.441406 26.675781 441.480469 26.917969 440.410156 26.917969 Z M 440.410156 26.082031 C 441.253906 26.082031 442.035156 25.886719 442.75 25.496094 C 443.460938 25.101562 444.039062 24.554688 444.476562 23.855469 C 444.914062 23.152344 445.128906 22.332031 445.128906 21.398438 C 445.128906 20.464844 444.914062 19.644531 444.476562 18.945312 C 444.039062 18.242188 443.46875 17.695312 442.75 17.308594 C 442.03125 16.917969 441.253906 16.726562 440.410156 16.726562 C 439.570312 16.726562 438.789062 16.917969 438.074219 17.308594 C 437.359375 17.695312 436.785156 18.242188 436.347656 18.945312 C 435.910156 19.644531 435.695312 20.464844 435.695312 21.398438 C 435.695312 22.332031 435.910156 23.152344 436.347656 23.855469 C 436.785156 24.554688 437.355469 25.101562 438.074219 25.496094 C 438.789062 25.886719 439.570312 26.082031 440.410156 26.082031 Z M 438.394531 24.367188 L 438.394531 18.441406 L 440.753906 18.441406 C 441.394531 18.441406 441.910156 18.597656 442.304688 18.917969 C 442.695312 19.234375 442.890625 19.671875 442.890625 20.222656 C 442.890625 20.652344 442.742188 21.011719 442.457031 21.289062 C 442.171875 21.566406 441.796875 21.75 441.332031 21.839844 L 443.1875 24.367188 L 441.925781 24.367188 L 440.238281 22.023438 L 439.417969 22.023438 L 439.417969 24.367188 L 438.382812 24.367188 Z M 439.429688 21.160156 L 440.582031 21.160156 C 440.972656 21.160156 441.277344 21.082031 441.496094 20.921875 C 441.714844 20.765625 441.828125 20.539062 441.828125 20.253906 C 441.828125 19.964844 441.730469 19.722656 441.535156 19.554688 C 441.34375 19.390625 441.050781 19.300781 440.664062 19.300781 L 439.433594 19.300781 L 439.433594 21.15625 Z M 439.429688 21.160156 "/></g></svg>